<svg width="137" height="41" viewBox="0 0 137 41" fill="none" xmlns="http://www.w3.org/2000/svg">
<path d="M27.0669 17.4565V32H22.9482V13.5088H26.8276L27.0669 17.4565ZM26.332 22.0708L24.999 22.0537C25.0104 20.7435 25.1927 19.5415 25.5459 18.4478C25.9105 17.354 26.4118 16.4141 27.0498 15.6279C27.6992 14.8418 28.474 14.238 29.374 13.8164C30.2741 13.3835 31.2767 13.167 32.3818 13.167C33.2705 13.167 34.0737 13.2923 34.7915 13.543C35.5207 13.7822 36.1416 14.1753 36.6543 14.7222C37.1784 15.269 37.5771 15.9811 37.8506 16.8584C38.124 17.7243 38.2607 18.7896 38.2607 20.0542V32H34.125V20.0371C34.125 19.1484 33.994 18.4478 33.7319 17.9351C33.4813 17.411 33.111 17.0407 32.6211 16.8242C32.1426 16.5964 31.5444 16.4824 30.8267 16.4824C30.1203 16.4824 29.488 16.6305 28.9297 16.9268C28.3714 17.223 27.8986 17.6274 27.5112 18.1401C27.1353 18.6528 26.8447 19.2453 26.6396 19.9175C26.4346 20.5897 26.332 21.3075 26.332 22.0708ZM52.8384 26.9927C52.8384 26.5825 52.7358 26.2122 52.5308 25.8818C52.3257 25.54 51.9326 25.2324 51.3516 24.959C50.7819 24.6855 49.9388 24.4349 48.8223 24.207C47.8424 23.9906 46.9424 23.7342 46.1221 23.438C45.3132 23.1304 44.6182 22.7601 44.0371 22.3271C43.4561 21.8942 43.006 21.3815 42.687 20.7891C42.368 20.1966 42.2085 19.513 42.2085 18.7383C42.2085 17.9863 42.3737 17.2743 42.7041 16.6021C43.0345 15.9299 43.5073 15.3374 44.1226 14.8247C44.7378 14.312 45.484 13.9076 46.3613 13.6113C47.25 13.3151 48.2412 13.167 49.335 13.167C50.8844 13.167 52.2118 13.429 53.3169 13.9531C54.4334 14.4658 55.2879 15.1665 55.8804 16.0552C56.4728 16.9325 56.769 17.9237 56.769 19.0288H52.6504C52.6504 18.5389 52.5251 18.0832 52.2744 17.6616C52.0352 17.2287 51.6706 16.8812 51.1807 16.6191C50.6908 16.3457 50.0755 16.209 49.335 16.209C48.6286 16.209 48.0418 16.3229 47.5747 16.5508C47.119 16.7673 46.7772 17.0521 46.5493 17.4053C46.3328 17.7585 46.2246 18.1458 46.2246 18.5674C46.2246 18.875 46.2816 19.1541 46.3955 19.4048C46.5208 19.644 46.7259 19.8662 47.0107 20.0713C47.2956 20.265 47.6829 20.4473 48.1729 20.6182C48.6742 20.7891 49.3008 20.9543 50.0527 21.1138C51.4655 21.41 52.6789 21.7917 53.6929 22.2588C54.7183 22.7145 55.5044 23.307 56.0513 24.0361C56.5981 24.7539 56.8716 25.6654 56.8716 26.7705C56.8716 27.5908 56.695 28.3428 56.3418 29.0264C56 29.6986 55.4987 30.2853 54.8379 30.7866C54.1771 31.2765 53.3853 31.6582 52.4624 31.9316C51.5509 32.2051 50.5256 32.3418 49.3862 32.3418C47.7114 32.3418 46.293 32.0456 45.1309 31.4531C43.9688 30.8493 43.0858 30.0802 42.4819 29.146C41.8895 28.2004 41.5933 27.2205 41.5933 26.2065H45.5752C45.6208 26.9699 45.8315 27.5794 46.2075 28.0352C46.5949 28.4795 47.0734 28.8042 47.6431 29.0093C48.2241 29.203 48.8223 29.2998 49.4375 29.2998C50.1781 29.2998 50.799 29.203 51.3003 29.0093C51.8016 28.8042 52.1833 28.5308 52.4453 28.189C52.7074 27.8358 52.8384 27.437 52.8384 26.9927ZM68.0312 29.0605C68.7035 29.0605 69.3073 28.9295 69.8428 28.6675C70.3896 28.394 70.8283 28.0181 71.1587 27.5396C71.5005 27.061 71.6885 26.5085 71.7227 25.8818H75.6021C75.5793 27.0781 75.2261 28.1662 74.5425 29.146C73.8589 30.1258 72.9531 30.9062 71.8252 31.4873C70.6973 32.057 69.4497 32.3418 68.0825 32.3418C66.6698 32.3418 65.4393 32.1025 64.3911 31.624C63.3429 31.1341 62.4714 30.4619 61.7764 29.6074C61.0814 28.7529 60.5573 27.7674 60.2041 26.6509C59.8623 25.5343 59.6914 24.3381 59.6914 23.062V22.4639C59.6914 21.1878 59.8623 19.9915 60.2041 18.875C60.5573 17.7471 61.0814 16.7559 61.7764 15.9014C62.4714 15.0469 63.3429 14.3804 64.3911 13.9019C65.4393 13.4119 66.6641 13.167 68.0654 13.167C69.5465 13.167 70.8454 13.4632 71.9619 14.0557C73.0785 14.6367 73.9557 15.4513 74.5938 16.4995C75.2432 17.5363 75.5793 18.744 75.6021 20.1226H71.7227C71.6885 19.439 71.5176 18.8237 71.21 18.2769C70.9137 17.7186 70.4922 17.2743 69.9453 16.9438C69.4098 16.6134 68.7661 16.4482 68.0142 16.4482C67.1825 16.4482 66.4932 16.6191 65.9463 16.9609C65.3994 17.2913 64.9722 17.7471 64.6646 18.3281C64.3569 18.8978 64.1348 19.5415 63.998 20.2593C63.8727 20.9657 63.8101 21.7005 63.8101 22.4639V23.062C63.8101 23.8254 63.8727 24.5659 63.998 25.2837C64.1234 26.0015 64.3398 26.6452 64.6475 27.2148C64.9665 27.7731 65.3994 28.2231 65.9463 28.5649C66.4932 28.8953 67.1882 29.0605 68.0312 29.0605ZM82.8994 17.0293V32H78.7808V13.5088H82.7114L82.8994 17.0293ZM88.5562 13.3892L88.522 17.2173C88.2713 17.1717 87.9979 17.1375 87.7017 17.1147C87.4168 17.092 87.132 17.0806 86.8472 17.0806C86.1408 17.0806 85.5199 17.1831 84.9844 17.3882C84.4489 17.5819 83.9989 17.8667 83.6343 18.2427C83.2811 18.6073 83.0076 19.0516 82.814 19.5757C82.6203 20.0998 82.5063 20.6865 82.4722 21.3359L81.5322 21.4043C81.5322 20.2422 81.6462 19.1655 81.874 18.1743C82.1019 17.1831 82.4437 16.3115 82.8994 15.5596C83.3665 14.8076 83.9476 14.2209 84.6426 13.7993C85.349 13.3778 86.1636 13.167 87.0864 13.167C87.3371 13.167 87.6048 13.1898 87.8896 13.2354C88.1859 13.2809 88.408 13.3322 88.5562 13.3892ZM95.5459 13.5088V32H91.4102V13.5088H95.5459ZM91.1367 8.65527C91.1367 8.02865 91.3418 7.51025 91.752 7.1001C92.1735 6.67855 92.7546 6.46777 93.4951 6.46777C94.2243 6.46777 94.7996 6.67855 95.2212 7.1001C95.6427 7.51025 95.8535 8.02865 95.8535 8.65527C95.8535 9.27051 95.6427 9.7832 95.2212 10.1934C94.7996 10.6035 94.2243 10.8086 93.4951 10.8086C92.7546 10.8086 92.1735 10.6035 91.752 10.1934C91.3418 9.7832 91.1367 9.27051 91.1367 8.65527ZM100.075 5.75H104.193V28.0522L103.8 32H100.075V5.75ZM116.259 22.5835V22.9424C116.259 24.3096 116.105 25.5685 115.797 26.7192C115.501 27.8586 115.045 28.8498 114.43 29.6929C113.826 30.536 113.074 31.1911 112.174 31.6582C111.286 32.1139 110.255 32.3418 109.081 32.3418C107.93 32.3418 106.928 32.1253 106.073 31.6924C105.219 31.2594 104.501 30.6442 103.92 29.8467C103.35 29.0492 102.889 28.0978 102.536 26.9927C102.182 25.8875 101.932 24.6685 101.784 23.3354V22.1904C101.932 20.846 102.182 19.627 102.536 18.5332C102.889 17.4281 103.35 16.4767 103.92 15.6792C104.501 14.8703 105.213 14.2493 106.056 13.8164C106.911 13.3835 107.908 13.167 109.047 13.167C110.232 13.167 111.274 13.3949 112.174 13.8506C113.086 14.3063 113.843 14.9557 114.447 15.7988C115.051 16.6305 115.501 17.6217 115.797 18.7725C116.105 19.9232 116.259 21.1935 116.259 22.5835ZM112.14 22.9424V22.5835C112.14 21.7518 112.072 20.9714 111.935 20.2422C111.798 19.5016 111.57 18.8522 111.251 18.2939C110.944 17.7357 110.522 17.297 109.987 16.978C109.463 16.6476 108.808 16.4824 108.021 16.4824C107.292 16.4824 106.666 16.6077 106.142 16.8584C105.618 17.109 105.179 17.4508 104.826 17.8838C104.472 18.3167 104.193 18.818 103.988 19.3877C103.795 19.9574 103.664 20.5726 103.595 21.2334V24.3267C103.698 25.1812 103.914 25.9673 104.245 26.6851C104.586 27.3914 105.065 27.9611 105.68 28.394C106.295 28.8156 107.087 29.0264 108.056 29.0264C108.819 29.0264 109.463 28.8726 109.987 28.5649C110.511 28.2573 110.927 27.8301 111.234 27.2832C111.553 26.7249 111.781 26.0755 111.918 25.335C112.066 24.5944 112.14 23.7969 112.14 22.9424ZM127.897 32.3418C126.53 32.3418 125.294 32.1196 124.188 31.6753C123.095 31.2196 122.16 30.5872 121.386 29.7783C120.622 28.9694 120.036 28.0181 119.625 26.9243C119.215 25.8306 119.01 24.6514 119.01 23.3867V22.7031C119.01 21.2562 119.221 19.946 119.643 18.7725C120.064 17.599 120.651 16.5964 121.403 15.7646C122.155 14.9215 123.043 14.2778 124.069 13.8335C125.094 13.3892 126.205 13.167 127.401 13.167C128.723 13.167 129.879 13.3892 130.871 13.8335C131.862 14.2778 132.682 14.9045 133.332 15.7134C133.992 16.5109 134.482 17.4622 134.801 18.5674C135.132 19.6725 135.297 20.8916 135.297 22.2246V23.9849H121.01V21.0283H131.229V20.7036C131.207 19.9631 131.059 19.2681 130.785 18.6187C130.523 17.9692 130.119 17.4451 129.572 17.0464C129.025 16.6476 128.296 16.4482 127.384 16.4482C126.701 16.4482 126.091 16.5964 125.556 16.8926C125.032 17.1774 124.593 17.5933 124.24 18.1401C123.887 18.687 123.613 19.3478 123.419 20.1226C123.237 20.8859 123.146 21.7461 123.146 22.7031V23.3867C123.146 24.1956 123.254 24.9476 123.471 25.6426C123.699 26.3262 124.029 26.9243 124.462 27.437C124.895 27.9497 125.419 28.3542 126.034 28.6504C126.649 28.9352 127.35 29.0776 128.136 29.0776C129.127 29.0776 130.01 28.8783 130.785 28.4795C131.56 28.0807 132.232 27.5168 132.802 26.7876L134.972 28.8896C134.573 29.4707 134.055 30.029 133.417 30.5645C132.779 31.0885 131.999 31.5158 131.076 31.8462C130.164 32.1766 129.105 32.3418 127.897 32.3418Z" fill="black"/>
<path d="M13.1396 15.2395L14.5875 15.2394L14.5715 29.2106L13.8629 29.9192L13.1544 29.2107L13.1396 15.2395ZM11.2915 7.84575C11.0989 8.03831 10.9757 8.31558 10.9756 8.60825L10.9755 11.4271L16.7519 11.4269L16.7521 8.608C16.7521 8.00726 16.2515 7.50666 15.6661 7.52209L12.0617 7.52224C11.7536 7.52225 11.4917 7.6455 11.2915 7.84575ZM10.9754 13.0753L10.9747 30.1119L13.8628 33L16.7511 30.1117L16.7519 13.0751L10.9754 13.0753Z" fill="#5251CC"/>
</svg>
